<svg id="Layer_1" data-name="Layer 1" xmlns="http://www.w3.org/2000/svg" viewBox="0 0 255 56.42"><defs><style>.cls-1{fill:#231f20;}.cls-2{fill:#006635;}.cls-3{fill:#e4b43a;}</style></defs><title>LABUR_Logo</title><path class="cls-1" d="M66.58,19.62c0-1.57,0-2.61-2-2.72-.8,0-1.34-.08-1.34-.65s.5-.54.81-.54c.65,0,2.69.15,4.68.15,2.42,0,3.76-.15,4.49-.15.3,0,.8,0,.8.54s-.58.61-1.34.65c-2,.11-2,1.15-2,2.61V34.83c0,2.42.69,3.72,3.07,3.72,1.84,0,4.57-.38,6.64-4.22.15-.31.31-.46.54-.46.39,0,.5.31.5.62s-.5,3.72-.54,4.38-.27.92-1,.92c-.35,0-.31-.15-9-.15a64.13,64.13,0,0,0-6.87.15c-.27,0-.77,0-.77-.54s.58-.57,1.34-.65c2-.11,2-1.15,2-2.76Z"/><path class="cls-1" d="M108.56,30.83c-1.15,0-1.15,0-1.46,1l-1.31,4.11a12.35,12.35,0,0,0-.35,1.61c0,1,1,1,1.84,1.07s1.46.15,1.46.62-.46.54-1.34.54c-.38,0-2.65-.15-3.76-.15-.42,0-2.69.15-3.19.15-.23,0-.72,0-.72-.57s.53-.58,1.15-.65c1.27-.12,1.61-.15,2.34-1.5,1.23-2.38,4.61-11.36,7.14-18,1.42-3.72,1.42-3.76,1.8-3.76s.54.27,1.12,1.84c.38,1.07.8,2.15,1.11,2.88l6,14.59c1.23,3,1.61,3.8,3.19,4,.65.08,1.07.15,1.07.65s-.65.5-.88.5c-.65,0-3.84-.15-4.49-.15-2.34,0-4.34.15-4.46.15-.38,0-.88,0-.88-.54s.62-.62,1.38-.69c1-.08,1.34-.27,1.34-.85a3.3,3.3,0,0,0-.27-1.11L114.73,32c-.42-1.15-.54-1.15-1.57-1.15Zm4-1.38c.88,0,.88-.15.88-.27a2,2,0,0,0-.23-.73l-2.69-6.6-2.38,6.49a2.2,2.2,0,0,0-.16.73c0,.38.23.38.92.38Z"/><path class="cls-1" d="M147.23,20.74c0-3.19-.15-3.54-2-3.54a7.48,7.48,0,0,1-.77,0c-.07,0-.57,0-.57-.42s.57-.69,1.38-.77c2.41-.27,8.06-.35,8.1-.35,1.92,0,9.86,0,9.86,5.76,0,4-3.76,4.8-5.22,5.07v.08c1.65.07,3.8.19,5.38,2.23a6.11,6.11,0,0,1,1.27,3.8c0,1.34-.66,7.14-8.25,7.14-.42,0-5.88-.15-7-.15,0,0-4,.15-4.72.15-.31,0-.81,0-.81-.57s.57-.58,1.38-.62c1.92-.15,1.92-1.15,1.92-2.76ZM154,26.07c4.37,0,4.91-3.22,4.91-4.65,0-3.11-1.84-4.72-5.18-4.72-2.38,0-2.38.88-2.38,1.88v6.22c0,.61,0,1.27,1.19,1.27ZM151.34,34c0,3.23.46,4.76,3.26,4.76a7.17,7.17,0,0,0,2.8-.5,5.59,5.59,0,0,0,2.8-5.14c0-5.95-5.11-6-6.26-6-2.57,0-2.61.19-2.61,1.54Z"/><path class="cls-1" d="M206.44,20.62c0-3.23-.31-3.65-2.38-3.8-.8,0-1.27-.08-1.27-.61s.54-.5.88-.5c.62,0,1.46.15,3.22.15,1.5,0,3.19-.15,3.73-.15s.65.38.65.54c0,.54-.69.57-1.23.61-1.77.12-2.18.35-2.18,3.54v12c0,2.11,0,7.64-8.6,7.64-5.22,0-10.05-1.42-10.05-7.87V19.66c0-1.61,0-2.65-1.92-2.76-.81,0-1.38-.08-1.38-.65s.5-.54.81-.54,1.88.15,4.53.15,4.41-.15,4.65-.15.77,0,.77.57-.54.57-1.35.62c-2,.15-2,1.15-2,2.65v12c0,2.65,0,7.37,6.56,7.37,6.1,0,6.56-4.11,6.56-6.41Z"/><path class="cls-1" d="M234.79,19.59c0-1.57,0-2.61-1.88-2.73-.84,0-1.38-.07-1.38-.61s.16-.54,1.42-.54c.38,0,2.27.15,2.72.15,1,0,6.15-.15,7.29-.15,6.8,0,7.37,4.68,7.37,6,0,4.49-4,5.41-5.26,5.68.5.3,1,.54,1.85,2.15l3.72,6.6c.77,1.34,1.3,2.31,2.37,2.46,1.27.15,1.57.2,1.57.69s-.38.46-.65.46c-.5,0-3-.15-3.57-.15-.3,0-1.72.15-2.07.15-.69,0-.85-.35-1.27-1.15l-4.64-8.75c-.85-1.65-1-1.81-2.76-1.81-.66,0-.73.23-.73.88v6.91c0,1.61,0,2.65,1.92,2.76.84,0,1.38.08,1.38.65s-.5.5-.81.5c-.73,0-4.46-.15-4.6-.15-.66,0-3.76.15-4.46.15-.31,0-.81,0-.81-.54s.57-.57,1.38-.62c1.88-.15,1.88-1.15,1.88-2.76Zm4.11,6.07c0,1.34,0,1.42,1.92,1.42,1.38,0,5.18,0,5.18-4.8,0-1.38-.54-5.49-5.3-5.49-1.77,0-1.81.92-1.81,2.42Z"/><path class="cls-2" d="M43.55,45.52c-.24,0-.48.1-1,.48-1.53,1.22-2.29,1.43-4.92,1.43H28.84L28,47.37c-.87.31-1.73.58-2.59.83V16.46l.05-10.11a4.89,4.89,0,0,1,2.31-1.1c.08,0,.13,0,.13.08s.95.46,1.23.55,3.05,2.21,5.34,2.76C35.6,7.53,36.15,7,38.14,5.33l.51-.47-.43-.42a3,3,0,0,1-1.57.38c-1.27,0-2.33-.51-4.5-2.12-1.31.68-9.07,3.69-10.43,4.41a1.26,1.26,0,0,0-.64,1.23V11.9c-1.86-1.36-2.71-2-4.54-2-2.88,0-5.17,1.95-5.17,4.45,0,1.23.64,1.91.89,1.91.08,0,.17-.13.17-.3l0-.59a2.32,2.32,0,0,1,2.46-2c2.42,0,4.87,1.46,5.81,6L20.54,31c-.09,2.93-.19,6.09-.3,9.43-.2,6-2.1,9-7.26,11.38a.22.22,0,0,0-.14.21,2.2,2.2,0,0,0,.29.58,19.75,19.75,0,0,1,7.59-1.06,70.09,70.09,0,0,1,14.09,1.8,19.19,19.19,0,0,0,2.49.37c.43,0,.66-.21,1.19-.79,4.3-4.76,5.3-6.61,5.3-7.09C43.79,45.62,43.7,45.52,43.55,45.52Z"/><path class="cls-3" d="M36.22,29.93a8.25,8.25,0,0,0-2.74-2.33,12.84,12.84,0,0,0-3.26-1.16,17.91,17.91,0,0,0-2.74-.4l-1.16,0q1.35-1.07,2.12-1.77l1.45-1.3c.45-.4.67-.65.67-.74a6.26,6.26,0,0,1-1.06-1c-.43-.48-.87-1-1.32-1.56S27.31,18.5,26.93,18s-1.3-1.49-1.52-1.87v5.83l.11.14a12.09,12.09,0,0,0,1.09,1.12,5.89,5.89,0,0,0,1,.75L19.27,31.2v-7h0V22.59c0-.1,0-.27,0-.55s0-.43.08-.71.07-.5.12-.79l0-.21A7.51,7.51,0,0,1,20,18.87a3.48,3.48,0,0,1,.38-.76c-.11-.35-.22-.69-.35-1l-.57.17a12.56,12.56,0,0,1-1.63.33,18.67,18.67,0,0,1-2.54.14,6,6,0,0,1-1.58-.19q-.7-.18-1.35-.39c-.43-.14-.88-.27-1.34-.4a6.09,6.09,0,0,0-1.58-.19,9,9,0,0,0-2.8.42,7,7,0,0,0-2.22,1.16,5.64,5.64,0,0,0-1.48,1.77,4.61,4.61,0,0,0-.54,2.19,2.28,2.28,0,0,0,.54,1.58,4,4,0,0,0,1.29,1,5.53,5.53,0,0,0,1.48.47,7.49,7.49,0,0,0,1.09.12c0-.12-.16-.22-.49-.3a5.61,5.61,0,0,1-1.06-.38,3.34,3.34,0,0,1-1.06-.76,2.08,2.08,0,0,1-.49-1.49,2,2,0,0,1,.73-1.61A2.51,2.51,0,0,1,6,20.12a4.32,4.32,0,0,1,1.32.21q.65.21,1.32.49c.45.19.89.35,1.32.49a4.41,4.41,0,0,0,1.37.21,10,10,0,0,0,1-.07l.25,0V39.15A11.91,11.91,0,0,0,10.69,39a8.72,8.72,0,0,0-3.29.56,7.09,7.09,0,0,0-2.25,1.4,5.58,5.58,0,0,0-1.29,1.79,4.35,4.35,0,0,0-.41,1.7,3.3,3.3,0,0,0,.28,1.49,2.62,2.62,0,0,0,.7.88,2.35,2.35,0,0,0,.83.44,2.54,2.54,0,0,0,.67.12c.14,0,.12,0-.05-.07A2.11,2.11,0,0,1,5.25,47a2.81,2.81,0,0,1-.7-.77,2.41,2.41,0,0,1-.34-1.35A1.48,1.48,0,0,1,4.55,44a3.57,3.57,0,0,1,.93-.86,5.39,5.39,0,0,1,1.42-.65,6.11,6.11,0,0,1,1.81-.26,7.9,7.9,0,0,1,3.16.58c.9.39,1.83.81,2.79,1.28A24.63,24.63,0,0,0,18,45.39a10.55,10.55,0,0,0,1.4.33,14.06,14.06,0,0,0,.76-3.42L19,41.71q-1.86-1-3.93-1.86a11,11,0,0,0-1.77-.56v-18l.32,0,1.55-.23V39.59l4.09-3.31v-4l1.34-1.21a3.21,3.21,0,0,1,1.35-.6,8,8,0,0,1,2-.23,12.71,12.71,0,0,1,3.13.4,9.78,9.78,0,0,1,2.87,1.21,7.31,7.31,0,0,1,2.12,2,4.72,4.72,0,0,1,.83,2.77,8,8,0,0,1-.54,2.91A7.91,7.91,0,0,1,30.81,42a7.55,7.55,0,0,1-2.3,1.75,6.49,6.49,0,0,1-2.92.65l-.19,0V45.7a16.27,16.27,0,0,0,2.28-.62,17,17,0,0,0,4.76-2.49A14.15,14.15,0,0,0,36,38.75a9.05,9.05,0,0,0,1.4-4.89A6.28,6.28,0,0,0,36.22,29.93Z"/></svg>